<?xml version="1.0" encoding="utf-8"?>
<!-- Generator: Adobe Illustrator 18.1.1, SVG Export Plug-In . SVG Version: 6.00 Build 0)  -->
<svg version="1.1" id="Layer_1" xmlns="http://www.w3.org/2000/svg" xmlns:xlink="http://www.w3.org/1999/xlink" x="0px" y="0px"
	 viewBox="-288.9 -120 904 158.8" enable-background="new -288.9 -120 904 158.8" xml:space="preserve">
<g>
	<g>
		<path fill="#FFFFFF" d="M-98.5-12.8h-26v-53.4h24.6c10.7,0,16.1,5.5,16.1,14.5c0,4.5-1.9,8.1-5.2,10.5c4.5,2.4,7.3,6.7,7.3,12.8
			C-81.7-19-88.2-12.8-98.5-12.8z M-114.3-57v11.8h14.5c3.5,0,6.2-2.4,6.2-5.9c0-3.5-2.4-5.8-6.2-5.8H-114.3z M-100.1-35.9h-14.2
			v13.8h14.5c3.9,0,7.8-1.5,7.8-6.8C-92.1-33.4-94.9-35.9-100.1-35.9z"/>
		<path fill="#FFFFFF" d="M-41.9-12.8h-9.7v-3.6c-2.5,2.8-5.9,4.5-10.1,4.5c-9.4,0-15.6-7-15.6-17.4v-23.2h10.2v23.2
			c0,2.2,0.8,7.8,7.4,7.8c4.5,0,7.7-3.4,7.7-7.8v-23.2h10.2V-12.8z"/>
		<path fill="#FFFFFF" d="M-26.1-28.7c1.3,4.8,5.2,7.8,9.9,7.8c3.4,0,6.7-1.5,8.4-4.6H3.1c-2.3,8.1-9.3,13.5-19.2,13.5
			c-11.2,0-20.3-9.2-20.3-20.7c0-11.5,9.2-20.8,20.3-20.8c11.7,0,21.4,9.1,19.9,24.8H-26.1z M-6.3-37c-1.2-4.6-5.1-7.5-9.9-7.5
			c-4.6,0-8.3,2.9-9.8,7.5H-6.3z"/>
		<path fill="#FFFFFF" d="M44.8-12.8H34.7V-36c0-2.3-0.7-7.8-7.4-7.8c-4.5,0-7.7,3.4-7.7,7.8v23.2H9.4v-39.6h9.7v3.8
			c2.5-3,6-4.8,10.2-4.8c9.3,0,15.5,7,15.5,17.5V-12.8z"/>
		<path fill="#FFFFFF" d="M90-32.6c0,11.9-9,20.7-20,20.7c-11,0-19.9-8.8-19.9-20.7c0-11.8,8.9-20.8,19.9-20.8
			C81-53.5,90-44.5,90-32.6z M79.7-32.5c0-6.8-4.4-11.6-9.8-11.6c-5.4,0-9.8,4.8-9.8,11.6c0,6.7,4.4,11.3,9.8,11.3
			C75.3-21.2,79.7-25.8,79.7-32.5z"/>
		<path fill="#FFFFFF" d="M111.5-11.9c-10.1,0-17.5-5.3-18.8-13.9H103c1.4,3.4,5.5,4.6,8.5,4.6c4.1,0,7.2-1.2,7.2-3.5
			c0-2.2-1.4-3.2-8.3-4.2c-7.1-1.1-16.5-3-16.5-11.9c0-6.2,5.5-12.7,16.9-12.7c9.1,0,15.9,4.9,17.2,12.4h-10.5
			c-0.6-1.8-2.8-3.3-6.6-3.3c-4.7,0-6.6,1.7-6.6,3.2c0,2.1,2.9,2.8,7.8,3.5c9.8,1.6,16.9,3.8,16.9,12.4
			C128.9-17.5,121.6-11.9,111.5-11.9z"/>
		<path fill="#FFFFFF" d="M166.8-23.5l-3.6,10.7h-10.8l18.6-53.4h12.8l18.6,53.4h-10.8l-3.6-10.7H166.8z M177.5-54.9L170-33h14.9
			L177.5-54.9z"/>
		<path fill="#FFFFFF" d="M216.8-56.8h-10.2v-9.5h10.2V-56.8z M216.8-12.8h-10.2v-39.6h10.2V-12.8z"/>
		<path fill="#FFFFFF" d="M260.3-34h-10.2v-2c0-2.3-0.7-7.8-7.4-7.8c-4.5,0-7.7,3.4-7.7,7.8v23.2h-10.2v-39.6h9.7v3.8
			c2.5-3,6-4.8,10.2-4.8c9.3,0,15.5,7,15.5,17.5V-34z"/>
		<path fill="#FFFFFF" d="M273.6-28.7c1.3,4.8,5.2,7.8,9.9,7.8c3.4,0,6.7-1.5,8.4-4.6h10.8c-2.3,8.1-9.3,13.5-19.2,13.5
			c-11.2,0-20.3-9.2-20.3-20.7c0-11.5,9.2-20.8,20.3-20.8c11.7,0,21.4,9.1,19.9,24.8H273.6z M293.4-37c-1.2-4.6-5.1-7.5-9.9-7.5
			c-4.6,0-8.3,2.9-9.8,7.5H293.4z"/>
		<path fill="#FFFFFF" d="M325.2-11.9c-10.1,0-17.5-5.3-18.8-13.9h10.3c1.4,3.4,5.5,4.6,8.5,4.6c4.1,0,7.2-1.2,7.2-3.5
			c0-2.2-1.4-3.2-8.3-4.2c-7.1-1.1-16.5-3-16.5-11.9c0-6.2,5.5-12.7,16.9-12.7c9.1,0,15.9,4.9,17.2,12.4H331
			c-0.6-1.8-2.8-3.3-6.6-3.3c-4.7,0-6.6,1.7-6.6,3.2c0,2.1,2.9,2.8,7.8,3.5c9.8,1.6,16.9,3.8,16.9,12.4
			C342.6-17.5,335.3-11.9,325.2-11.9z"/>
		<path fill="#FFFFFF" d="M394-11.9c-14.5,0-25.9-12.2-25.9-27.9s11.3-27.9,25.9-27.9c12.1,0,21,6.8,24.3,17.8h-11
			c-2.4-4.8-7.2-8.5-13.3-8.5c-8.8,0-15.7,8.5-15.7,18.5c0,10.2,6.9,18.6,15.7,18.6c6.1,0,10.9-3.8,13.3-8.6h10.9
			C414.9-18.9,405.9-11.9,394-11.9z"/>
		<path fill="#FFFFFF" d="M433.5-56.8h-10.2v-9.5h10.2V-56.8z M433.5-12.8h-10.2v-39.6h10.2V-12.8z"/>
		<path fill="#FFFFFF" d="M476.3-12.8h-9.7v-3.6c-2.5,2.8-5.9,4.5-10.1,4.5c-9.4,0-15.6-7-15.6-17.4v-23.2h10.2v23.2
			c0,2.2,0.8,7.8,7.4,7.8c4.5,0,7.7-3.4,7.7-7.8v-23.2h10.2V-12.8z"/>
		<path fill="#FFFFFF" d="M522.5-12.8h-9.7v-4.2c-3.2,3.2-7.3,5.1-12.2,5.1c-10.3,0-18.9-8.9-18.9-20.6c0-11.8,8.5-20.7,18.9-20.7
			c4.6,0,8.6,1.7,11.7,4.6v-21.4h10.2V-12.8z M502.1-43.9c-5.6,0-10.2,4.9-10.2,11.4c0,6.3,4.5,11.2,10.2,11.2
			c5.6,0,10.2-5,10.2-11.2C512.3-38.8,507.8-43.9,502.1-43.9z"/>
		<path fill="#FFFFFF" d="M568.8-12.8h-9.7v-4.2c-3.1,3.2-7.3,5.1-12.2,5.1c-10.3,0-18.9-8.9-18.9-20.6c0-11.8,8.5-20.7,18.9-20.7
			c4.9,0,9.1,1.8,12.2,5.1v-4.2h9.7V-12.8z M548.5-43.9c-5.6,0-10.2,4.9-10.2,11.4c0,6.3,4.5,11.2,10.2,11.2s10.2-5,10.2-11.2
			C558.7-38.8,554.1-43.9,548.5-43.9z"/>
		<path fill="#FFFFFF" d="M615.1-12.8h-9.7v-4.2c-3.2,3.2-7.3,5.1-12.2,5.1c-10.3,0-18.9-8.9-18.9-20.6c0-11.8,8.5-20.7,18.9-20.7
			c4.6,0,8.6,1.7,11.7,4.6v-21.4h10.2V-12.8z M594.8-43.9c-5.6,0-10.2,4.9-10.2,11.4c0,6.3,4.5,11.2,10.2,11.2
			c5.6,0,10.2-5,10.2-11.2C605-38.8,600.4-43.9,594.8-43.9z"/>
	</g>
	<g>
		<path fill="#FFFFFF" d="M-223.5-94.3c-0.4,0-0.8,0.3-0.8,0.8c0,0.4,0.3,0.7,0.8,0.7c0.4,0,0.7-0.3,0.7-0.7
			C-222.8-94-223.1-94.3-223.5-94.3"/>
		<path fill="#FFFFFF" d="M-185.3-82.6l-0.1,0c-3.9-0.2-7.7-1.6-11.3-3c-1.5-0.6-3-1.1-4.5-1.6c-3-0.9-5.6-1.5-8.1-1.6
			c-0.7,0-1.3-0.1-1.9-0.1c-1.7,0-4,0.2-5.5,1.6c-0.4-1.9-0.9-3.9-1.7-5.9c-0.7-1.9-1.9-4.1-3.8-4.7c-0.3-0.1-0.7-0.1-1-0.1
			c-2,0-3.5,1.8-4.2,2.8l-0.3,0.5c-0.9,1.2-1.3,1.9-1.2,2.4c0.1,0.6,0.9,1,2.5,2c0.7,0.4,0.8,1.4,0.9,2.2v0.1
			c0.1,1.1,0.2,2.2,0.2,3.3c-2.3-2.3-5.8-3.3-8.9-3.9c-0.8-0.2-1.7-0.3-2.6-0.3c-3.6,0-7.2,1.4-9.5,2.4c-1.3,0.6-2.7,1.2-3.9,1.8
			c-2.5,1.2-5,2.4-7.7,3.2c-0.8,0.2-1.7,0.5-2.7,0.6h-0.1c0,0,0,0-0.1,0l-0.1,0c-0.4,0.1-1.1,0.3-1.2,0.9c-0.1,0.6,0,1,0.8,1.7
			c1.9,1.1,4.3,1.6,7.2,1.6c0.6,0,1.2,0,1.9-0.1c0.9,0,1.8-0.2,2.7-0.3c1.3-0.2,2.7-0.3,4-0.3c0.9,0,1.7,0.1,2.4,0.2
			c2.2,0.5,3.5,2.6,4.6,4.6c0.3,0.5,0.5,0.9,0.8,1.3l0,0c0.5,0.8,1.4,2.1,1.3,3.1c0,1-1.4,1.8-2.3,2.3c-0.2,0.2-0.5,0.3-0.7,0.4
			c-0.3,0.2-0.7,0.5-1,0.7c-2.2,1.4-5.1,3.3-4.8,5.8c0.1,1.2,1.2,2.3,2.5,2.4c0.1,0,0.2,0,0.3,0c0.9,0,1.7-0.4,2.5-0.8
			c0.3-0.2,0.7-0.4,1-0.5c1-0.4,2.1-0.6,3.1-0.6c1.7,0,3.4,0.6,5,1.8c0.5,0.4,1,0.8,1.4,1.3c0.5,0.5,1,1,1.6,1.4
			c0.4,0.3,1.3,0.7,2,0.7c0.7,0,1.2-0.3,1.3-1c0.2-1.3,0.2-2.6,0.2-3.9c0-1,0-2.1,0.1-3.1c0.1-0.6,0.3-1.9,1.1-2.3
			c0.3-0.1,0.6-0.2,0.9-0.2c0.4,0,0.8,0.1,1.2,0.1c0.6,0.1,1.2,0.2,1.7,0.1c2.3-0.3,4.2-2.2,5.1-5c0.4-0.9,0.9-1.4,1.9-1.6
			c1.2-0.3,1.9-1.2,2.6-2.1c0.2-0.2,0.4-0.5,0.5-0.7c1.5-1.7,3.2-2.5,5.7-2.5c0.4,0,0.9,0,1.5,0.1c0.5,0.1,1,0.1,1.5,0.2
			c1.3,0.1,2.6,0.3,3.9,0.3c1.4,0,2.6-0.2,3.8-0.6c3-1,5.6-2.9,8-4.9l0.4-0.3c0.7-0.6,0.8-0.9,0.7-1.6
			C-184.2-82.4-185-82.6-185.3-82.6 M-236.7-73.8c-0.6-1-1.2-2-1.9-2.9c-1.7-2.1-4-3-7.5-3c-1.4,0-2.9,0.2-4.4,0.3
			c-1.4,0.2-2.9,0.3-4.3,0.3c-0.7,0-1.4,0-2-0.1c2.5-0.8,4.9-2,7.2-3.1c2.5-1.2,5-2.4,7.7-3.2c1.6-0.5,3.4-0.8,5.1-0.8
			c3.2,0,6.1,0.8,8.6,2.4c2,1.3,2.6,2.7,1.9,4.7c-0.7,2.1-2,4.1-3.7,6.1c-0.1,0.1-0.2,0.3-0.4,0.4c-0.7,0.9-2,2.4-3.1,2.4
			c-0.3,0-0.6-0.1-0.9-0.4C-235.3-71.6-236-72.7-236.7-73.8 M-216.5-70.8c-0.2,1.7-0.9,3.2-2,4.2c-0.9,0.9-2,1-3.3,1h-0.7
			c-0.2,0-0.5,0-0.8,0c-0.9,0-1.6,0.3-2.2,0.9c-1.7,1.7-1.6,5.4-1.6,7.8v0.8l-0.2-0.2c-2.1-1.9-4-3.8-7-4.2
			c-0.5-0.1-0.9-0.1-1.4-0.1c-0.9,0-1.8,0.1-2.8,0.3c-0.8,0.2-1.6,0.5-2.3,0.9c-0.3,0.1-0.6,0.3-0.9,0.4c-0.4,0.1-0.8,0.3-1.1,0.3
			c-0.1,0-0.1,0-0.2,0c0,0,0-0.1,0-0.2c0.3-1,1.4-1.7,2.2-2.3l0.2-0.2c2.2-1.5,4.2-3,6.3-4.5c3.7-2.9,7.8-6.5,9.8-11.4
			c1.1-2.7,1.6-5.9,1.4-9.1l0-0.2c-0.1-1.3-0.2-2.7-0.7-3.9c-0.4-1-1.2-1.5-2.1-2c-0.2-0.1-0.3-0.2-0.5-0.3c0.4-0.7,1.5-2.7,2.7-2.7
			c0.5,0,1,0.3,1.4,0.9c1.5,2,2.2,4.4,2.7,6.6c0.1,0.4,0.2,0.8,0.3,1.2C-217.8-82.6-215.9-75.7-216.5-70.8 M-191.2-78.7
			c-2,1.2-3.8,1.7-5.5,1.7h-0.2c-1.1,0-2.3-0.2-3.3-0.3c-0.9-0.1-1.9-0.2-2.9-0.3c-2.4-0.1-4.2,0.3-5.7,1.2c-1,0.6-1.7,1.5-2.4,2.3
			c-0.5,0.6-1,1.2-1.7,1.8c-0.2,0.1-0.4,0.3-0.6,0.3h0c-0.3,0-0.3-0.2-0.3-0.6v-0.2c0-0.9-0.2-1.8-0.3-2.6l-0.1-0.5
			c-0.2-1.5-0.4-3.1-0.8-4.6c0-0.3-0.1-0.6-0.3-0.9c-0.4-1.4-1-3.1,0.1-3.9c0.6-0.5,1.7-0.6,2.5-0.7c0,0,0.8-0.1,1.7-0.1h0.3
			c1,0,2,0.1,3,0.2c1.9,0.2,3.9,0.7,6.2,1.5c1.3,0.4,2.6,0.9,3.8,1.4c2.9,1.1,5.9,2.2,9,2.7C-189.5-79.7-190.4-79.1-191.2-78.7"/>
		<path fill="#FFFFFF" d="M-159-55.6c-0.9-5.5-2.2-10.9-4.1-16.2c-1.8-5-4-9.9-6.7-14.5c-2.1-3.6-4.4-7-7.1-10.2
			c-3.3-4.1-7.1-7.8-11.3-11.1c-4.1-3.2-8.5-5.8-13.3-7.9c-4.7-2-9.7-3.4-14.8-4.1c-5.2-0.7-10.4-0.6-15.6,0.2
			c-5.1,0.8-10,2.3-14.7,4.4c-4.7,2.2-9.1,4.9-13.1,8.2c-4.1,3.3-7.8,7.1-11.1,11.3c-3.2,4.1-6,8.5-8.4,13.1c-2.5,4.8-4.4,9.9-6,15
			c-1.6,5.4-2.7,11-3.3,16.5c-0.6,5.8-0.7,11.7-0.3,17.5c0.4,5.7,1.4,11.3,2.8,16.8c1.4,5.3,3.2,10.4,5.5,15.3
			c2.2,4.7,4.9,9.2,8,13.4c3.5,4.7,12.3,13.1,12.3,13.1c10.4,8.5,23,13.5,36.6,13.5h0c5.2,0,10.3-0.7,15.3-2.2
			c4.9-1.4,9.6-3.6,14-6.2c4.5-2.7,8.6-6,12.3-9.7c3.7-3.7,7-7.8,9.8-12.2c2.9-4.4,5.3-9.1,7.3-14c2.1-5.1,3.6-10.4,4.8-15.8
			c1.2-5.6,1.8-11.4,2-17.1C-157.7-44.1-158.1-49.9-159-55.6 M-275-17.7h-1.7l1.5-5.7c0.1-0.4,0.2-0.4,0.3-0.2
			C-274.9-21.5-275-19.5-275-17.7 M-274.2-33.1l-3.4-1.5c-0.2-0.1-0.2-0.1,0.1-0.1h7.2c0.2,0,0.2,0.1,0,0.1l-3.2,1.5
			C-273.7-33-274-33-274.2-33.1 M-278.4-36.3l3.8-2.7c0,0.9,0,1.8-0.1,2.7H-278.4z M-277.1-45.3h6.4c0.2,0,0.2,0.1,0,0.1l-2.9,1.3
			c-0.2,0.1-0.5,0.1-0.6,0l-3-1.4C-277.3-45.2-277.3-45.3-277.1-45.3 M-277.9-46.6l3.5-2.3c0,0.7,0,1.5,0,2.3H-277.9z M-273.3-48.8
			l3.4,2.2h-3.4C-273.2-47.4-273.3-48.1-273.3-48.8 M-273.1-39l3.8,2.7h-3.7C-273.1-37.2-273.1-38.1-273.1-39 M-272.8-17.7
			c0-1.9-0.1-3.9-0.1-5.9c0-0.1,0.1-0.2,0.3,0.2l1.5,5.7H-272.8z M-223.4,33.1c-10,0-19.4-3-27.7-8.4c6.4,0,12.8,0.8,19.2,1.8
			c6.4,1,12.8,2,19.2,2.7c2.5,0.2,5,0.4,7.4,0.5C-211,31.9-217.1,33.1-223.4,33.1 M-194.1,23.7c-6.3,0.7-12.7,0.4-19-0.3
			c-6.3-0.7-12.6-1.8-18.9-2.7c-6.5-0.9-13-1.7-19.5-1.7c-2.2,0-4.4,0.1-6.6,0.4c-2.1-1.8-4-3.9-5.9-6c6.6-1,13.3-0.9,19.9-0.5
			c6.6,0.5,13.2,1.5,19.8,2.4c3.3,0.5,6.6,1,9.9,1.4c1.7,0.2,8.2,0.7,9.8,0.7c6.6,0,13.2-0.5,19.8-1.6
			C-187.8,18.8-190.8,21.4-194.1,23.7 M-179,8.9c-6.3,1.5-12.8,2.3-19.3,2.7c-3.3,0.2-6.5,0.3-9.8,0.1c-3.3-0.1-6.6-0.7-9.8-1.2
			c-6.6-0.9-13.1-2-19.7-2.7c-6.6-0.7-13.2-1.1-19.8-0.8c-3.6,0.2-7.2,0.6-10.7,1.3c-1.2-1.7-2.4-3.4-3.4-5.3
			c5.8-1.2,11.7-2,17.7-2.2c6-0.2,12,0.2,18,1c5.8,0.8,11.5,1.8,17.3,2.6c5.3,0.7,10.6,1.2,15.9,1.2h0c5.5,0,11.1-0.5,16.5-1.4
			c4-0.6,7.9-1.5,11.8-2.5C-175.8,4.2-177.4,6.6-179,8.9 M-267-11.4c-2.8-1.8-3.1-4.8-3-5.4l8.5-20.1c0.2-0.4,0.3-0.2,0.2,0
			L-267-11.4z M-261.3-30.4c-0.1,9-0.3,17.4-0.3,21.4c-1.6-0.5-3.1-0.9-4.4-1.9l4.5-20C-261.4-31-261.3-30.7-261.3-30.4 M-263.6-48
			h6.4c0.2,0,0.2,0.1,0,0.2l-2.9,1.4c-0.2,0.1-0.4,0.1-0.6,0l-3-1.4C-263.8-48-263.8-48-263.6-48 M-264.4-49.3l3.4-2.2
			c0,0.7,0,1.5,0,2.2H-264.4z M-259.6-51.5l3.3,2.2h-3.3C-259.6-50.1-259.6-50.8-259.6-51.5 M-252.8-22c-0.1,4.3-0.2,8.6-0.3,12
			c0,0-0.1,0.1-0.1,0.1l-2.8-12.4l1.5-3.6L-252.8-22z M-253.9-27.4l1.1-2.7c0.1-0.2,0.2-0.1,0.2,0c0,1.7-0.1,3.6-0.1,5.5
			L-253.9-27.4z M-256.8-20.7l2.8,11.3c-1,0.4-2.2,0.6-3.2,0.8c-0.4,0-0.7,0.1-1.1,0.1c-0.2,0-0.5,0-0.7,0c0-1.5,0-3.8-0.1-6.6
			L-256.8-20.7z M-259.2-17.8c-0.1-3.7-0.1-8.1-0.2-12.7c0-0.4,0.1-0.6,0.3-0.1l1.9,8L-259.2-17.8z M-256.5-24.2l-2.9-12.7
			c0-0.3,0-0.4,0.2,0l4.1,9.5L-256.5-24.2z M-250.9-20.2v-1.9c-0.1-3.3-0.2-4.8-0.2-7.9c0-0.2,0.1-0.4,0.2-0.1l5.1,12.7
			c-0.8,1.7-1,2.2-2.3,3.6L-250.9-20.2z M-248.9-12.9c-0.5,0.6-1.2,1.1-1.8,1.6c-0.1-1.7-0.1-4-0.2-6L-248.9-12.9z M-243.7-17.8
			l5.8-12.5c-0.1,3.6-0.2,8.7-0.3,12.5h-2.4C-241.4-17.8-242.8-17.7-243.7-17.8 M-201.9-33.8h8.4c0.2,0,0.3,0.1,0.1,0.2
			c0,0-3.9,1.8-3.9,1.8c-0.2,0.1-0.6,0.1-0.8,0l-3.9-1.8C-202.2-33.8-202.2-33.8-201.9-33.8 M-202.9-35.5l4.4-3.2c0,0.9,0,3,0,3.2
			H-202.9z M-201.3-47.9c0,0,0.1,0,0.1,0h7c0.1,0,0.1,0,0.1,0h0h0c0,0,0,0.1-0.1,0.1l-3.2,1.5c-0.2,0.1-0.5,0.1-0.6,0l-3.3-1.5
			C-201.3-47.9-201.4-47.9-201.3-47.9 M-202.1-49.4l3.8-2.7c0,0.9,0,1.8,0,2.7H-202.1z M-197-52.1l3.8,2.7h-3.7
			C-197-50.3-197-51.2-197-52.1 M-196.8-38.7l4.4,3.2h-4.3C-196.8-36.5-196.8-37.6-196.8-38.7 M-184.1-42h7.2c0.2,0,0.2,0.1,0,0.1
			l-3.2,1.6c-0.2,0.1-0.5,0.1-0.7,0l-3.4-1.6C-184.3-42-184.3-42-184.1-42 M-185-43.5l3.8-2.7c0,0.9,0,1.8,0,2.7H-185z M-179.7-46.2
			l3.8,2.7h-3.8C-179.7-44.4-179.7-45.3-179.7-46.2 M-181.4-30.7c-0.1,8.7-0.3,18.1-0.4,24.7c-2.1,0.7-4,0.9-5.6,0.8l3.6-16l2.1-9.4
			C-181.5-30.9-181.4-31-181.4-30.7 M-181.9-34.4l-6.2,27.7l-2.7-7.4l0,0l8.6-20.5C-182-35.1-181.8-35.4-181.9-34.4 M-188.8-5.5
			c-2-0.4-3.5-1.4-4.7-2.4l2-4.9L-188.8-5.5z M-194.2-8.7c-1.2-1.3-1.9-2.5-2.2-3.1c0-4.2-0.1-10.5-0.3-17.2l4.8,14.6L-194.2-8.7z
			 M-204.6-12h-10.3l15.4-17.3L-204.6-12z M-198.7-28.9c-0.1,3.9-0.2,16.4-0.2,16.9h-4.6L-198.7-28.9z M-179.5-30.7
			c0-0.3,0.1-0.2,0.2,0.1L-175-12c-0.9,2.2-2.8,3.8-4.2,4.7C-179.2-10.7-179.5-30.6-179.5-30.7 M-173.9-12.2l-5.3-22.1
			c-0.2-1.3,0.2-0.9,0.4-0.4l9.6,22.4H-173.9z M-165.3-22.9c-0.7,3.5-1.7,7-2.8,10.4l-11.5-27.4l5.1-2.3c0.5-0.3,0.5-1,0-1.3
			c0,0-5-3.5-5.2-3.7l-0.1-8.4c0.6-0.1,1.2-0.4,1.8-0.5c0.7-0.1,1.3,0,2,0.1c0.6,0.1,1.2,0.2,1.8,0c0.6-0.2,1-0.5,1.5-0.8
			c-1.3,0-2.4-0.9-3.5-1.4c-0.6-0.3-1.2-0.4-1.9-0.5c-0.6-0.1-1.4-0.1-2,0.1c-0.1-0.5-0.1-1-0.2-1.5h-0.3c-0.4,2.3-0.4,4.8-0.4,7.1
			c0,1.6,0,3.3,0,4.9c0,0.3,0,0.6,0,0.9l-5.2,3.7c-0.5,0.3-0.5,1,0,1.3v0l4.9,2.3l-9.9,24.2l-5.1-15.5l5.7-2.7
			c0.6-0.3,0.6-1.2,0-1.5c0,0-5.3-3.7-6.1-4.2c0-2-0.1-4.1-0.1-5.9l5.2-2.4v0c0.5-0.3,0.5-1,0-1.3c0,0-4.6-3.3-5.3-3.8
			c0-3.8-0.1-7.6-0.1-11.4c0.3,0,0.6-0.1,0.9-0.2c0.3-0.1,0.6-0.2,1-0.3c0.7-0.1,1.3,0,2,0.1c0.6,0.1,1.3,0.2,1.9,0
			c0.6-0.2,1.1-0.5,1.5-0.8c-1.3,0-2.4-0.9-3.5-1.4c-0.6-0.3-1.2-0.4-1.9-0.5c-0.6-0.1-1.4-0.1-2,0.1c0-0.5-0.1-1-0.2-1.6h-0.2v0
			c-0.4,2.1-0.4,4.2-0.4,6.4c0,1.9,0,3.9-0.1,5.8c0,1.3,0,2.5-0.1,3.8l-5.3,3.8c-0.5,0.3-0.5,1,0,1.3l5.2,2.4c0,1.8,0,4-0.1,5.9
			l-6,4.2c-0.6,0.3-0.6,1.2,0,1.5l5.5,2.7L-216.3-12c-0.3,0-2.5,0-2.8,0.4c-0.5,0.4-0.5,0.9-0.3,1.4c0.2,0.6,0.8,1.1,1.4,1.4
			c0.3,0.2,0.6,0.3,0.9,0.5c0,0,0.1,0.1,0.1,0.1c0,0,1.6,5.2,8.3,7.6h0c0,0,0.2,0.1,0.1,0.2c0,0,0,0.1,0,0.1c0,0-0.1,0-0.2,0.1
			c-6.4-0.4-12.7-1.4-19-2.4c-2.4-0.4-4.8-0.8-7.2-1.1c-1.6-0.2-3.3-0.4-4.9-0.7c-0.2-0.1-0.2-0.1-0.3-0.2v0c0,0,0,0,0,0v0
			c0,0,0,0,0,0c0-0.1,0.1-0.1,0.1-0.1c0,0,0.1,0,0.1,0c8.9-2.6,10.7-9.1,10.7-9.1c0.1-0.1,0.2-0.1,0.3-0.2c0.3-0.1,0.5-0.2,0.7-0.3
			c0.6-0.3,1.1-0.8,1.4-1.4c0.2-0.5,0.2-1-0.3-1.4c-0.3-0.4-2.8-0.4-2.8-0.4l0,0h-0.4c0-1.4-0.1-5-0.1-7.3c0.3,0.1,0.6,0,0.8,0
			c0.3-0.1,0.7-0.2,1-0.3c0.7-0.2,1.3-0.1,2,0c0.7,0.1,1.3,0.2,2,0.1c0.6-0.1,1.1-0.5,1.6-0.9c-1.3,0-2.4-0.9-3.6-1.4
			c-0.6-0.3-1.3-0.4-1.9-0.5c-0.6-0.1-1.4-0.1-2,0.2c-0.1-0.6-0.1-1-0.1-1.4h-0.3c-0.3,2-0.3,8.9-0.4,11.5l-4.5,0
			c-0.1-4.9-0.4-11.3-0.5-15.5l3.9-8.3c0.5,0.2,1.1,0.3,1.7,0.5c0.6,0.2,1.1,0.6,1.6,1c0.5,0.4,0.9,0.8,1.5,1
			c0.6,0.2,1.3,0.2,1.9,0.1c-1.1-0.7-1.6-1.9-2.3-2.9c-0.4-0.5-0.8-1-1.3-1.3c-0.5-0.4-1.2-0.8-1.8-1c0.2-0.5,0.4-1.1,0.4-1.4
			c0,0,0-0.1-0.1-0.2c0,0-0.1,0-0.1,0c-0.2,0-0.2,0.1-0.3,0.3c-0.3,0.4-0.8,1.2-0.9,1.4l-4.1,8.8c0-1.4-0.1-2.8-0.1-4.2
			c0-1.8-0.1-3.5-0.4-5.2h-0.3c-0.4,2.1-0.4,4.2-0.4,6.4c0,1.9-0.1,3.8-0.1,5.7l-7.1,14.7l-6.3-15.6c-0.1-1.9-0.1-3.8-0.1-5.8
			c0-2.2,0-4.4-0.4-6.5h-0.2c-0.4,2.1-0.4,4.3-0.4,6.4c0,2-0.1,3.9-0.1,5.9l-2,4.8l-5-11.6c0-1.9-0.1-3.8-0.1-5.7l4.5-2.1
			c0.4-0.2,0.5-0.9,0-1.1c0,0-3.8-2.8-4.6-3.3c-0.1-4-0.1-8-0.2-11.9c0.3,0,0.6-0.1,0.9-0.2c0.3-0.1,0.6-0.2,1-0.3
			c0.7-0.1,1.3,0,2,0.1c0.6,0.1,1.3,0.2,1.9,0c0.5-0.2,1-0.5,1.5-0.8c-1.3,0-2.3-0.8-3.5-1.4c-0.6-0.3-1.2-0.4-1.8-0.5
			c-0.6-0.1-1.4-0.1-2.1,0.1c0-0.5-0.1-1-0.2-1.6h-0.2c-0.4,2.5-0.4,5.1-0.4,7.7c0,2.5-0.1,5-0.1,7.4c0,0.5,0,0.9,0,1.4l-4.6,3.3
			c-0.5,0.2-0.5,0.9,0,1.1l4.5,2.1c0,2.1-0.1,5.4-0.1,5.7l-9.2,21.6l-1.4-5h1.2h0.6c0.3,0,0.5-0.1,0.8-0.2c0.2,0,0.6-0.2,0.6-0.4
			c0-0.2-0.4-0.4-0.5-0.4c-0.3-0.1-0.6-0.2-0.8-0.2h-2.1l-0.9-3.4c0-1.4,0-2.8-0.1-4.2l5.1-2.4c0.5-0.3,0.5-1,0-1.3
			c0,0-4.9-3.5-5.2-3.7c0-1,0-2.4-0.1-3.3l4.6-2.2c0.5-0.2,0.5-0.9,0-1.1c0,0-4.1-2.9-4.7-3.4c0-3.3-0.1-5.5-0.1-5.8
			c0.5,0,1.1-0.3,1.6-0.4c0.6-0.1,1.1-0.1,1.7,0c0.5,0.1,1.1,0.2,1.7,0.1c0.5-0.2,1-0.4,1.4-0.8c-1.2,0-2.1-0.8-3.1-1.2
			c-0.5-0.2-1.1-0.4-1.7-0.4c-0.6-0.1-1.3-0.1-1.8,0.1c-0.1-0.4-0.1-0.9-0.2-1.4h-0.2c-0.3,1.8-0.4,3.7-0.4,5.5c0,1.6,0,2.7-0.1,4.3
			l-4.7,3.3c-0.5,0.2-0.5,0.9,0,1.2l4.6,2.2c0,0.9,0,2.3-0.1,3.3l-5.1,3.7c-0.5,0.3-0.5,1,0,1.3l5,2.4c0,1.4-0.1,2.8-0.1,4.2
			l-0.9,3.5h-2.1c-0.3,0-0.6,0.1-0.8,0.2c-0.2,0.1-0.6,0.2-0.6,0.4c0,0.2,0.4,0.4,0.5,0.4c0.3,0.1,0.6,0.2,0.8,0.2h0.6h0h1.2l-1.6,6
			h-2.5c-1.6-5.8-2.5-11.8-2.8-17.7c-0.3-6-0.1-12,0.7-18c0.8-5.5,2.1-10.9,3.9-16.2c1.7-5,4-9.8,6.7-14.4c1.4-2.4,3-4.7,4.7-6.9
			c6.9,2.3,15.8,0.2,15.8,0.2c8-1.4,13-1.2,15.9-0.8l1.6,0.3c0.2-1,0.3-1.7,0.6-2.6c-8.4-2.7-17.9-1.4-17.9-1.4
			c-5.7,0.5-9.2-0.6-11-1.6c0,0,3.6-3.8,6.6-6c2.6,1.9,5.8,2.8,8.9,3.3c2,0.4,4.1,0.5,6.1,1c2,0.5,4.1,1.1,6,1.7
			c0.7,0.2,1.6,0.7,2,0.9c0.4-0.8,0.9-1.6,1.4-2.3l-1.3-0.8c-2.6-1.5-5-2.3-7.8-3.1c-1.8-0.6-3.6-1.2-5.3-2.1
			c-2.3-1.2-3.8-2.8-3.9-2.9c0,0,4-2.4,7.8-3.8c1.7,2.5,5,3.8,7.2,5.7c3.1,2.7,4.8,5.1,4.9,5.4c0.7-0.5,1.4-0.9,2.4-1.3
			c-1.2-2.7-3-5.9-5.1-7.8c-1-0.9-2.4-2.5-2.8-4c0,0,5-1.3,8.8-1.3l1.4,12.7c0.5-0.1,1.3-0.1,1.3-0.1s0.5,0,1.4,0.1l1.4-12.6
			c0,0,3.4,0.2,6.2,0.7c1.5,0.3,2.7,0.6,2.7,0.6c-0.4,1.5-1.9,3.1-2.8,4c-2.2,2-3.9,5.1-5.1,7.9c0.7,0.3,1.6,0.6,2.3,1.3
			c1.5-2.2,3.3-4,4.9-5.4c2.2-1.9,5.4-3.3,7.1-5.7c0.5,0.2,2.4,0.9,5.5,2.5l2.3,1.3c-0.1,0.1-2.6,2.2-3.9,2.9
			c-1.7,1-3.5,1.5-5.3,2.1c-2.7,0.8-5.2,1.6-7.8,3.1l-1.3,0.8c0.5,0.6,1,1.4,1.4,2.3c0.5-0.2,1.4-0.7,2-0.9c2-0.7,4-1.3,6-1.7
			c2-0.5,4-0.6,6.1-1c3-0.5,6.3-1.5,8.9-3.3c3.3,2.5,6.6,6,6.6,6c-1.8,1-5.3,2.1-11,1.6c0,0-9.4-1.3-17.8,1.3
			c0.3,0.8,0.4,1.3,0.6,2.6l1.7-0.3c3-0.4,7.9-0.6,15.9,0.9c0,0,8.9,2.1,15.8-0.2c0.7,0.9,1.4,1.8,2,2.7c3,4.3,5.4,8.9,7.5,13.7
			c2.1,5.1,3.8,10.3,4.9,15.7c1.2,5.6,1.8,11.4,1.8,17.2C-163.5-35.3-164.1-29.1-165.3-22.9"/>
	</g>
</g>
</svg>
