<?xml version="1.0" encoding="utf-8"?>
<!-- Generator: Adobe Illustrator 18.1.1, SVG Export Plug-In . SVG Version: 6.00 Build 0)  -->
<svg version="1.1" id="Layer_1" xmlns="http://www.w3.org/2000/svg" xmlns:xlink="http://www.w3.org/1999/xlink" x="0px" y="0px"
	 viewBox="1453.2 -401.5 1190.6 640.3" enable-background="new 1453.2 -401.5 1190.6 640.3" xml:space="preserve">
<g>
	<defs>
		<path id="SVGID_1_" d="M2296.9-401.5L2296.9-401.5c-46.8,0-87.2,26.7-107,65.9L2029.2-25.1c-17.9-31.9-46.5-57-81.1-70.5
			c38.6-27.9,63.6-73.3,63.6-124.6c0-59.4-33.7-110.9-83.1-136.3c-43.5-22.8-93.1-35.8-145.7-35.8h-240.4c-49.4,0-89.3,40-89.3,89.3
			v447.3c0,49.3,39.9,89.3,89.3,89.3h86.9h173.2c50.2,0,97.9-10.4,141.1-28.9l16.5-8c0.9-0.4,1.9-0.9,2.7-1.4
			c15.6,25.9,43.9,43.4,76.5,43.4c36.1,0,67.4-21.5,81.4-52.5c6.9-16.3,22.8-27.9,41.5-28.8h269.4c18.6,0.9,34.4,12.4,41.5,28.8
			c14,30.9,45.2,52.5,81.4,52.5c49.4,0,89.3-40,89.3-89.2c0-16-4.2-31.1-11.6-43.9l-228.5-441.2
			C2384-374.8,2343.7-401.5,2296.9-401.5L2296.9-401.5z"/>
	</defs>
	<clipPath id="SVGID_2_">
		<use xlink:href="#SVGID_1_"  overflow="visible"/>
	</clipPath>
	<rect x="1453.2" y="-401.5" clip-path="url(#SVGID_2_)" fill="#FFFFFF" width="1190.4" height="640.3"/>
</g>
</svg>
